HIERARCHY
ROOT Hips
{
	OFFSET 0.00 0.00 0.00
	CHANNELS 6 Xposition Yposition Zposition Xrotation Yrotation Zrotation
	JOINT Spine
	{
		OFFSET 0.00000 5.89385 0.00000
		CHANNELS 3 Xrotation Yrotation Zrotation
		JOINT Head
		{
			OFFSET 0.00000 16.44715 0.00000
			CHANNELS 3 Xrotation Yrotation Zrotation
			End Site
			{
				OFFSET 0.00000 4.52755 0.00000
			}
		}
		JOINT LeftShoulder
		{
			OFFSET 0.00000 10.90038 0.00000
			CHANNELS 3 Xrotation Yrotation Zrotation
			JOINT LeftArm
			{
				OFFSET 8.21946 0.00000 0.00000
				CHANNELS 3 Xrotation Yrotation Zrotation
				JOINT LeftForeArm
				{
					OFFSET 11.09494 0.00000 0.00000
					CHANNELS 3 Yrotation Zrotation Xrotation
					JOINT LeftHand
					{
						OFFSET 9.10388 0.00000 0.00000
						CHANNELS 3 Xrotation Yrotation Zrotation
						JOINT LeftHandThumb1
						{
							OFFSET 0.00000 0.00000 0.00000
							CHANNELS 3 Xrotation Zrotation Yrotation
							End Site
							{
								OFFSET 0.00000 0.00000 3.93700
							}
						}
						End Site
						{
							OFFSET 3.93700 0.00000 0.00000
						}
					}
				}
			}
		}
		JOINT RightShoulder
		{
			OFFSET 0.00000 10.90038 0.00000
			CHANNELS 3 Xrotation Yrotation Zrotation
			JOINT RightArm
			{
				OFFSET -8.21946 0.00000 0.00000
				CHANNELS 3 Xrotation Yrotation Zrotation
				JOINT RightForeArm
				{
					OFFSET -11.09494 0.00000 0.00000
					CHANNELS 3 Yrotation Zrotation Xrotation
					JOINT RightHand
					{
						OFFSET -9.10388 0.00000 0.00000
						CHANNELS 3 Xrotation Yrotation Zrotation
						JOINT RightHandThumb1
						{
							OFFSET 0.00000 0.00000 0.00000
							CHANNELS 3 Xrotation Zrotation Yrotation
							End Site
							{
								OFFSET 0.00000 0.00000 3.93700
							}
						}
						End Site
						{
							OFFSET -3.93700 0.00000 0.00000
						}
					}
				}
			}
		}
	}
	JOINT LeftUpLeg
	{
		OFFSET 3.69794 0.00000 0.00000
		CHANNELS 3 Xrotation Yrotation Zrotation
		JOINT LeftLeg
		{
			OFFSET 0.00000 -16.18147 0.00000
			CHANNELS 3 Xrotation Yrotation Zrotation
			JOINT LeftFoot
			{
				OFFSET 0.00000 -16.50139 0.00000
				CHANNELS 3 Xrotation Yrotation Zrotation
				JOINT LeftToeBase
				{
					OFFSET 0.00000 -1.65857 6.18989
					CHANNELS 3 Xrotation Yrotation Zrotation
					End Site
					{
						OFFSET 0.00000 0.00000 2.95275
					}
				}
			}
		}
	}
	JOINT RightUpLeg
	{
		OFFSET -3.69794 0.00000 0.00000
		CHANNELS 3 Xrotation Yrotation Zrotation
		JOINT RightLeg
		{
			OFFSET 0.00000 -16.18147 0.00000
			CHANNELS 3 Xrotation Yrotation Zrotation
			JOINT RightFoot
			{
				OFFSET 0.00000 -16.50139 0.00000
				CHANNELS 3 Xrotation Yrotation Zrotation
				JOINT RightToeBase
				{
					OFFSET 0.00000 -1.65857 6.18989
					CHANNELS 3 Xrotation Yrotation Zrotation
					End Site
					{
						OFFSET 0.00000 0.00000 2.95275
					}
				}
			}
		}
	}
}
MOTION
Frames: 21
Frame Time: 0.008333
 3.6229 35.3771 -0.1034 -70.1201 -71.7519 -71.5526 8.4722 1.2044 -9.8083 26.2247 19.0927 12.4670 6.4531 7.5924 25.6445 -41.3036 12.8725 -34.9248 -5.2447 0.0000 8.7470 1.9279 11.1694 -9.8577 33.1476 -0.0000 26.2537 38.0370 -25.0817 -4.8049 -62.7583 8.7396 39.8557 9.7376 0.0000 -7.9062 0.4707 -3.8906 6.9033 32.8623 0.0000 -24.3270 17.8006 13.3513 13.8254 15.4978 0.0000 0.0000 -16.8726 1.4295 -10.3373 4.1297 0.0000 0.0000 25.8140 -12.2382 2.4888 10.0080 -0.0000 0.0000 -20.1060 -11.1827 8.7508 11.4987 0.0000 -0.0000
 3.5262 35.3718 0.1003 -70.2505 -71.3642 -71.2986 8.4505 1.3740 -9.5218 26.4637 18.6331 12.3827 6.3839 7.5468 25.6154 -41.2200 12.9334 -34.8053 -5.2492 0.0000 8.6231 1.9187 11.2929 -9.7078 33.1476 -0.0000 26.2537 37.9389 -25.0842 -4.8868 -62.7986 8.7838 39.6742 9.7922 0.0000 -7.9396 0.4703 -3.9033 6.8765 32.8623 0.0000 -24.3270 18.4496 13.4351 13.2185 15.4963 -0.0000 0.0000 -17.0256 1.1831 -10.4470 4.0952 -0.0000 0.0000 26.2224 -12.4574 1.8343 10.1239 -0.0000 0.0000 -20.2303 -11.2431 8.9143 11.4523 -0.0000 -0.0000
 3.4352 35.3664 0.3088 -70.3594 -71.0059 -70.9889 8.4144 1.5110 -9.2705 26.6739 18.1835 12.2778 6.4446 7.6020 25.5588 -41.2241 12.9041 -34.7057 -5.2103 0.0000 8.4041 1.9068 11.3477 -9.6033 33.1476 -0.0000 26.2537 37.9421 -25.0931 -4.9230 -62.8567 8.8916 39.4935 9.9081 0.0000 -8.0335 0.4643 -3.8239 6.9288 32.8623 0.0000 -24.3270 19.0822 13.5053 12.5598 15.4807 -0.0000 0.0000 -17.1740 0.9585 -10.4612 4.1333 0.0000 0.0000 26.5758 -12.7107 1.1368 10.2583 0.0000 -0.0000 -20.3557 -11.2805 9.0749 11.3916 -0.0000 0.0000
 3.3462 35.3625 0.5162 -70.5454 -70.6575 -70.7587 8.3855 1.6769 -9.0267 26.9016 17.7423 12.1975 6.5233 7.6521 25.5118 -41.2877 12.9190 -34.5848 -5.2037 0.0000 8.2563 1.9027 11.4367 -9.5108 33.1476 -0.0000 26.2537 37.9463 -25.0755 -4.9711 -62.9735 8.9185 39.3160 9.9516 0.0000 -7.9627 0.4623 -3.8887 6.7852 32.8623 0.0000 -24.3270 19.7392 13.5818 11.9106 15.4227 0.0000 0.0000 -17.2751 0.7132 -10.6345 4.1020 0.0000 -0.0000 26.9245 -12.9878 0.4375 10.3746 0.0000 -0.0000 -20.4510 -11.2995 9.2407 11.3616 0.0000 0.0000
 3.2653 35.3585 0.7290 -70.6709 -70.3417 -70.4393 8.3257 1.7852 -8.7897 27.1725 17.3171 12.0290 6.5817 7.7332 25.4381 -41.3176 12.9212 -34.4812 -5.2189 0.0000 8.1423 1.8969 11.5727 -9.3746 33.1476 -0.0000 26.2537 37.9156 -25.0726 -5.0822 -63.0712 8.9522 39.1930 10.0578 0.0000 -7.9521 0.4618 -3.7924 6.9479 32.8623 0.0000 -24.3270 20.3653 13.5930 11.2103 15.3696 0.0000 0.0000 -17.3856 0.5180 -10.7161 4.0959 -0.0000 0.0000 27.1943 -13.3275 -0.3095 10.5342 0.0000 -0.0000 -20.5590 -11.2840 9.4319 11.3396 0.0000 -0.0000
 3.1862 35.3549 0.9394 -70.8756 -70.0492 -70.2137 8.2672 1.9339 -8.5507 27.4088 16.8914 11.8920 6.6295 7.7978 25.3900 -41.3315 12.9218 -34.3894 -5.2096 0.0000 8.0032 1.8833 11.7720 -9.1555 33.1476 -0.0000 26.2537 37.9056 -25.0771 -5.1283 -63.1431 9.0779 39.0476 10.1590 0.0000 -8.0403 0.4645 -3.7261 7.1110 32.8623 0.0000 -24.3270 21.0095 13.6789 10.5114 15.2430 0.0000 -0.0000 -17.4679 0.3100 -10.7270 4.0533 0.0000 -0.0000 27.4768 -13.5808 -1.0382 10.6269 -0.0000 -0.0000 -20.6201 -11.3224 9.6639 11.2535 -0.0000 0.0000
 3.1114 35.3502 1.1550 -71.0414 -69.7606 -69.9091 8.2232 2.0650 -8.3369 27.6440 16.4289 11.7009 6.6805 7.8136 25.3150 -41.4414 13.0259 -34.2430 -5.2260 0.0000 8.0177 1.8503 11.8722 -8.9240 33.1476 -0.0000 26.2537 37.8568 -25.1070 -5.2144 -63.1149 9.2255 38.9184 10.3139 0.0000 -8.1002 0.4652 -3.7048 7.1623 32.8623 0.0000 -24.3270 21.6397 13.7198 9.7775 15.1386 0.0000 0.0000 -17.5364 0.0909 -10.8300 4.0485 0.0000 -0.0000 27.6664 -14.0253 -1.8328 10.8405 -0.0000 0.0000 -20.7339 -11.2453 9.8688 11.2595 -0.0000 -0.0000
 3.0435 35.3462 1.3701 -71.1019 -69.4856 -69.5220 8.1687 2.1428 -8.0947 27.8889 15.9798 11.4731 6.7267 7.8813 25.2187 -41.5300 13.0607 -34.1182 -5.2381 0.0000 8.0596 1.8423 11.9533 -8.8276 33.1476 -0.0000 26.2537 37.7733 -25.1308 -5.3169 -63.1332 9.3678 38.7955 10.4040 0.0000 -8.0478 0.4790 -3.7832 7.2216 32.8623 0.0000 -24.3270 22.2188 13.7543 9.0678 15.0469 -0.0000 0.0000 -17.6230 -0.1232 -10.8609 4.0492 -0.0000 0.0000 27.8579 -14.3956 -2.5869 10.9951 -0.0000 0.0000 -20.7875 -11.2046 10.0498 11.1651 -0.0000 -0.0000
 2.9818 35.3421 1.5840 -71.2096 -69.2617 -69.1721 8.0850 2.2729 -7.8733 28.1223 15.5401 11.2749 6.5724 7.8357 25.2031 -41.3579 13.1205 -34.0498 -5.2808 0.0000 8.0291 1.8302 12.0333 -8.7140 33.1476 -0.0000 26.2537 37.7909 -25.1672 -5.3572 -63.1543 9.5317 38.6498 10.5557 0.0000 -8.0084 0.4705 -3.6513 7.3480 32.8623 0.0000 -24.3270 22.7606 13.7941 8.3335 14.9543 -0.0000 0.0000 -17.6840 -0.3269 -10.8273 4.0152 -0.0000 -0.0000 27.9621 -14.7371 -3.3695 11.1898 -0.0000 0.0000 -20.8582 -11.1746 10.2677 11.0913 0.0000 -0.0000
 2.9261 35.3381 1.7972 -71.2475 -69.0608 -68.7903 7.9818 2.3241 -7.5944 28.3666 15.1218 11.0053 6.5759 7.9330 25.1027 -41.3168 13.0828 -33.9773 -5.2616 0.0000 7.9056 1.8178 12.0899 -8.6166 33.1476 -0.0000 26.2537 37.6785 -25.1685 -5.5164 -63.0841 9.6575 38.5258 10.7571 0.0000 -7.8843 0.4823 -3.6701 7.4913 32.8623 0.0000 -24.3270 23.2516 13.8106 7.6332 14.8774 0.0000 0.0000 -17.7668 -0.4945 -10.7740 4.0492 -0.0000 0.0000 28.0423 -15.0439 -4.1047 11.3636 0.0000 -0.0000 -20.8950 -11.1648 10.4176 11.0100 0.0000 -0.0000
 2.8744 35.3338 2.0099 -71.2524 -68.8686 -68.3701 7.8831 2.4079 -7.3340 28.5892 14.6824 10.7669 6.5746 7.9634 25.0258 -41.2873 13.0858 -33.8974 -5.2708 0.0000 7.8098 1.7782 12.0557 -8.4544 33.1476 -0.0000 26.2537 37.6212 -25.1852 -5.6160 -63.0101 9.7933 38.3716 10.9632 0.0000 -7.8041 0.4831 -3.6249 7.5964 32.8623 0.0000 -24.3270 23.7285 13.7829 6.9318 14.8060 0.0000 -0.0000 -17.8470 -0.6592 -10.7384 4.0335 0.0000 -0.0000 28.1135 -15.2713 -4.8327 11.5275 -0.0000 -0.0000 -20.9299 -11.2332 10.5657 10.9327 -0.0000 -0.0000
 2.8313 35.3305 2.2205 -71.1451 -68.6953 -67.8612 7.7848 2.4633 -7.0445 28.7877 14.2402 10.5021 6.6444 7.9956 24.8961 -41.3230 13.1034 -33.7770 -5.3234 0.0000 7.7316 1.7943 12.1854 -8.4417 33.1476 -0.0000 26.2537 37.6699 -25.2460 -5.6451 -63.1355 9.9076 38.2508 11.1574 0.0000 -7.6267 0.4822 -3.5931 7.6489 32.8623 0.0000 -24.3270 24.1286 13.7359 6.2694 14.7709 0.0000 -0.0000 -17.9330 -0.8430 -10.6731 4.0645 0.0000 0.0000 28.1468 -15.5080 -5.5277 11.6942 0.0000 -0.0000 -20.9436 -11.3071 10.7117 10.8714 -0.0000 0.0000
 2.7872 35.3252 2.4298 -70.9940 -68.5184 -67.3339 7.6864 2.4791 -6.7214 28.9727 13.8015 10.1982 6.6069 8.0394 24.7929 -41.4846 13.2695 -33.6896 -5.3885 0.0000 7.6647 1.7923 12.1112 -8.4827 33.1476 -0.0000 26.2537 37.6888 -25.2855 -5.7237 -63.0142 10.0996 38.0544 11.4509 0.0000 -7.6182 0.5000 -3.6723 7.7591 32.8623 0.0000 -24.3270 24.5084 13.6784 5.6434 14.7634 0.0000 -0.0000 -18.0178 -1.0370 -10.5801 3.9978 0.0000 -0.0000 28.2179 -15.7350 -6.1828 11.8066 0.0000 -0.0000 -20.9391 -11.3741 10.8064 10.7912 -0.0000 0.0000
 2.7517 35.3216 2.6349 -70.7862 -68.3719 -66.7583 7.5811 2.5037 -6.4174 29.1263 13.3325 9.9543 6.4615 8.0247 24.7365 -41.4395 13.3731 -33.6227 -5.4645 0.0000 7.8468 1.8392 12.2237 -8.6240 33.1476 -0.0000 26.2537 37.6638 -25.3240 -5.8009 -63.2254 10.0350 37.9602 11.6277 0.0000 -7.1800 0.4995 -3.5232 8.0752 32.8623 0.0000 -24.3270 24.8262 13.5590 5.0438 14.7712 0.0000 -0.0000 -18.0928 -1.2115 -10.6404 3.9877 -0.0000 0.0000 28.2264 -15.9638 -6.8264 11.9428 0.0000 -0.0000 -20.9250 -11.4431 10.9063 10.7669 -0.0000 -0.0000
 2.7209 35.3192 2.8387 -70.5529 -68.2200 -66.1767 7.4871 2.5434 -6.0894 29.3017 12.8336 9.6992 6.4953 8.0435 24.6461 -41.5279 13.4408 -33.5813 -5.4488 0.0000 7.6810 1.7894 12.1648 -8.4328 33.1476 -0.0000 26.2537 37.5771 -25.3836 -5.8916 -63.1003 10.1583 37.8096 11.8760 0.0000 -7.1576 0.5045 -3.5459 8.1026 32.8623 0.0000 -24.3270 25.1261 13.4645 4.4727 14.7797 -0.0000 0.0000 -18.1632 -1.4111 -10.6527 3.9915 -0.0000 0.0000 28.2632 -16.1311 -7.4302 12.0375 0.0000 -0.0000 -20.8668 -11.5799 11.0142 10.6521 0.0000 0.0000
 2.6926 35.3166 3.0391 -70.1751 -68.0970 -65.4697 7.3416 2.5133 -5.7548 29.4693 12.3714 9.4444 6.5362 8.1060 24.5338 -41.5983 13.4871 -33.5050 -5.5437 0.0000 7.8907 1.8383 12.1889 -8.6437 33.1476 -0.0000 26.2537 37.5739 -25.4473 -5.9540 -62.8979 10.4080 37.6122 12.1000 0.0000 -7.2367 0.5041 -3.4647 8.2834 32.8623 0.0000 -24.3270 25.3666 13.3157 3.9328 14.7859 0.0000 -0.0000 -18.2403 -1.6049 -10.6856 4.0185 -0.0000 -0.0000 28.2555 -16.3848 -8.0033 12.1198 0.0000 -0.0000 -20.7884 -11.6669 11.1099 10.6033 0.0000 -0.0000
 2.6699 35.3153 3.2342 -69.8015 -68.0078 -64.7822 7.1866 2.4893 -5.4257 29.5983 11.9112 9.1988 6.5169 8.1355 24.4476 -41.5674 13.5691 -33.4656 -5.6512 0.0000 8.0356 1.8257 12.1893 -8.5849 33.1476 -0.0000 26.2537 37.6176 -25.4725 -5.9558 -62.9852 10.4849 37.4491 12.3530 0.0000 -7.0422 0.5278 -3.5841 8.3821 32.8623 0.0000 -24.3270 25.5580 13.1860 3.4108 14.7989 0.0000 -0.0000 -18.2874 -1.8088 -10.6926 3.9804 -0.0000 -0.0000 28.2038 -16.6054 -8.5581 12.2097 -0.0000 0.0000 -20.7065 -11.7571 11.1671 10.4984 0.0000 -0.0000
 2.6490 35.3148 3.4251 -69.4482 -67.8716 -64.1156 7.1109 2.4955 -5.1172 29.6722 11.4244 9.0242 6.4370 8.0878 24.3980 -41.5099 13.6457 -33.4029 -5.7041 0.0000 8.1781 1.8620 12.2167 -8.7340 33.1476 -0.0000 26.2537 37.5581 -25.5046 -5.9709 -62.8038 10.6224 37.2412 12.6155 0.0000 -7.0184 0.5213 -3.5352 8.3934 32.8623 0.0000 -24.3270 25.7878 13.0818 2.9058 14.8052 0.0000 -0.0000 -18.3362 -2.0322 -10.6960 3.9898 0.0000 -0.0000 28.2326 -16.8209 -9.0850 12.2385 0.0000 -0.0000 -20.5929 -11.8451 11.2085 10.4294 -0.0000 0.0000
 2.6356 35.3153 3.6108 -68.9979 -67.7755 -63.3951 6.9864 2.5110 -4.7751 29.7697 10.8713 8.8498 6.4154 8.0723 24.3802 -41.4649 13.6797 -33.4877 -5.7042 0.0000 7.6743 1.7660 12.2368 -8.2765 33.1476 -0.0000 26.2537 37.5111 -25.5712 -5.9691 -62.6053 10.7781 37.0350 12.8790 0.0000 -6.9733 0.5260 -3.5532 8.4260 32.8623 0.0000 -24.3270 25.9291 13.0057 2.4485 14.8338 -0.0000 0.0000 -18.3918 -2.2737 -10.6681 3.9952 0.0000 -0.0000 28.2132 -16.9862 -9.5597 12.2682 0.0000 -0.0000 -20.4509 -11.9768 11.2468 10.3373 0.0000 -0.0000
 2.6261 35.3158 3.7936 -68.5458 -67.6969 -62.6617 6.8542 2.4637 -4.4542 29.8509 10.3904 8.6491 6.4459 8.1218 24.3029 -41.4789 13.6939 -33.4736 -5.7066 0.0000 7.6223 1.7234 12.1581 -8.1303 33.1476 -0.0000 26.2537 37.4542 -25.6169 -6.0197 -62.4482 10.8961 36.8668 13.1421 0.0000 -6.8695 0.5278 -3.5057 8.5669 32.8623 0.0000 -24.3270 26.0557 12.8767 1.9765 14.8538 0.0000 -0.0000 -18.4330 -2.4672 -10.6716 4.0320 -0.0000 -0.0000 28.1189 -17.2140 -10.0608 12.3646 0.0000 -0.0000 -20.3331 -12.0397 11.2368 10.2171 -0.0000 0.0000
 2.6215 35.3179 3.9685 -68.0830 -67.6383 -61.9506 6.7183 2.4204 -4.1213 29.9074 9.9222 8.4705 6.4034 8.1322 24.2513 -41.4224 13.7432 -33.4612 -5.7284 0.0000 7.4903 1.6981 12.1148 -8.0402 33.1476 -0.0000 26.2537 37.3293 -25.6320 -6.0886 -62.2670 10.9580 36.7120 13.4211 0.0000 -6.8670 0.5307 -3.5177 8.5849 32.8623 0.0000 -24.3270 26.1420 12.8029 1.5447 14.8709 -0.0000 0.0000 -18.4498 -2.6839 -10.6367 4.0328 -0.0000 0.0000 28.0643 -17.3059 -10.4959 12.3833 -0.0000 0.0000 -20.1725 -12.2063 11.2338 10.1316 0.0000 -0.0000
